<svg version="1" xmlns="http://www.w3.org/2000/svg" width="400" height="400" viewBox="0 0 300.000000 300.000000"><path d="M0 150v150h300V0H0v150zm173.9-85.8c-7.3 28.2-15.9 84.3-18.4 120.3l-.5 8 2.4-11.1c9-42.2 26.7-73.5 51.9-92.1 11.6-8.5 12.7-8.1 3.5 1.3-10.3 10.5-13.3 14.2-20.3 24.9-13.1 20-22.6 44.5-27.1 70-1.9 11-1.8 11.1 2 2 9.9-24.1 20-40 35.1-55.1 12.4-12.4 22-19 35.4-24.1 10.7-4 14.5-4.3 7.6-.5-35.1 19.4-64.5 58.3-79 104.7-5.3 17-7.8 20.5-14 20.5-6 0-9-3.8-13.6-17.5-15.5-45.8-44.6-81.6-81.5-100.5-9.6-4.9-7-5.3 6.3-.8 31.5 10.4 58.8 39.8 76.5 82.3 4.4 10.5 4.7 8.8 1.4-6.8-8.5-40.2-30-77.1-57.6-99l-3.5-2.8 3.9 1.5c6.7 2.7 17.9 10.8 25.6 18.6 16.5 16.4 28.6 39.5 36 68.5l2.8 10.9.6-7.4c.3-4.1.8-11.6 1.1-16.5 1.8-27.8 7.8-63.1 13.9-81.7 3-9.2 9.9-24.8 11-24.8.2 0-.4 3.3-1.5 7.2z"/></svg>